<svg width="48" height="48" viewBox="0 0 48 48" fill="none" xmlns="http://www.w3.org/2000/svg">
  <defs>
    <linearGradient id="p0" x1="50%" y1="0%" x2="50%" y2="100%">
      <stop offset="0%" stop-color="#6D28D9"/>
      <stop offset="100%" stop-color="#8B5CF6"/>
    </linearGradient>
    <linearGradient id="p1" x1="100%" y1="0%" x2="0%" y2="100%">
      <stop offset="0%" stop-color="#8B5CF6"/>
      <stop offset="100%" stop-color="#DB2777"/>
    </linearGradient>
    <linearGradient id="p2" x1="100%" y1="100%" x2="0%" y2="0%">
      <stop offset="0%" stop-color="#DB2777"/>
      <stop offset="100%" stop-color="#E11D48"/>
    </linearGradient>
    <linearGradient id="p3" x1="50%" y1="100%" x2="50%" y2="0%">
      <stop offset="0%" stop-color="#E11D48"/>
      <stop offset="100%" stop-color="#D97706"/>
    </linearGradient>
    <linearGradient id="p4" x1="0%" y1="100%" x2="100%" y2="0%">
      <stop offset="0%" stop-color="#D97706"/>
      <stop offset="100%" stop-color="#0891B2"/>
    </linearGradient>
    <linearGradient id="p5" x1="0%" y1="0%" x2="100%" y2="100%">
      <stop offset="0%" stop-color="#0891B2"/>
      <stop offset="100%" stop-color="#6D28D9"/>
    </linearGradient>
  </defs>
  <g transform="rotate(0 24 24)"><path d="M24 24 C20.5 17, 18.5 8, 24 3 C29.5 8, 27.5 17, 24 24Z" fill="url(#p0)" opacity="0.9"/></g>
  <g transform="rotate(60 24 24)"><path d="M24 24 C20.5 17, 18.5 8, 24 3 C29.5 8, 27.5 17, 24 24Z" fill="url(#p1)" opacity="0.9"/></g>
  <g transform="rotate(120 24 24)"><path d="M24 24 C20.5 17, 18.5 8, 24 3 C29.5 8, 27.5 17, 24 24Z" fill="url(#p2)" opacity="0.9"/></g>
  <g transform="rotate(180 24 24)"><path d="M24 24 C20.5 17, 18.5 8, 24 3 C29.5 8, 27.5 17, 24 24Z" fill="url(#p3)" opacity="0.9"/></g>
  <g transform="rotate(240 24 24)"><path d="M24 24 C20.5 17, 18.5 8, 24 3 C29.5 8, 27.5 17, 24 24Z" fill="url(#p4)" opacity="0.9"/></g>
  <g transform="rotate(300 24 24)"><path d="M24 24 C20.5 17, 18.5 8, 24 3 C29.5 8, 27.5 17, 24 24Z" fill="url(#p5)" opacity="0.9"/></g>
  <circle cx="24" cy="24" r="3.5" fill="white" opacity="0.85"/>
  <circle cx="24" cy="24" r="1.8" fill="white"/>
</svg>
